<?xml version="1.0" encoding="utf-8"?>
<!-- Generator: Adobe Illustrator 20.1.0, SVG Export Plug-In . SVG Version: 6.00 Build 0)  -->
<svg version="1.1" id="Flow_tree" xmlns="http://www.w3.org/2000/svg" xmlns:xlink="http://www.w3.org/1999/xlink" x="0px" y="0px"
	 viewBox="0 0 20 20" style="enable-background:new 0 0 20 20;" xml:space="preserve">
<style type="text/css">
	.st0{fill:#878787;}
</style>
<path class="st0" d="M18,14.8v-2.3c0-1.9-1.6-3.5-3.5-3.5h-2C11.7,9,11,8.3,11,7.5V5.2C11.8,4.8,12.4,4,12.4,3
	c0-1.3-1.1-2.4-2.4-2.4S7.6,1.7,7.6,3c0,1,0.6,1.8,1.4,2.2v2.3C9,8.3,8.3,9,7.5,9h-2C3.6,9,2,10.6,2,12.5v2.3
	C1.2,15.2,0.6,16,0.6,17c0,1.3,1.1,2.4,2.4,2.4s2.4-1.1,2.4-2.4c0-1-0.6-1.8-1.4-2.2v-2.3C4,11.7,4.7,11,5.5,11h2
	c0.5,0,1-0.1,1.5-0.4v4.2C8.2,15.2,7.6,16,7.6,17c0,1.3,1.1,2.4,2.4,2.4s2.4-1.1,2.4-2.4c0-1-0.6-1.8-1.4-2.2v-4.2
	c0.5,0.2,1,0.4,1.5,0.4h2c0.8,0,1.5,0.7,1.5,1.5v2.3c-0.8,0.4-1.4,1.2-1.4,2.2c0,1.3,1.1,2.4,2.4,2.4s2.4-1.1,2.4-2.4
	C19.4,16,18.8,15.2,18,14.8z M10,1.6c0.8,0,1.4,0.6,1.4,1.4c0,0.8-0.6,1.4-1.4,1.4C9.2,4.4,8.6,3.8,8.6,3C8.6,2.2,9.2,1.6,10,1.6z
	 M3,18.4c-0.8,0-1.4-0.6-1.4-1.4c0-0.8,0.6-1.4,1.4-1.4c0.8,0,1.4,0.6,1.4,1.4C4.4,17.8,3.8,18.4,3,18.4z M10,18.4
	c-0.8,0-1.4-0.6-1.4-1.4c0-0.8,0.6-1.4,1.4-1.4c0.8,0,1.4,0.6,1.4,1.4C11.4,17.8,10.8,18.4,10,18.4z M17,18.4
	c-0.8,0-1.4-0.6-1.4-1.4c0-0.8,0.6-1.4,1.4-1.4c0.8,0,1.4,0.6,1.4,1.4C18.4,17.8,17.8,18.4,17,18.4z"/>
</svg>
