<?xml version="1.0" encoding="utf-8"?>
<!-- Generator: Adobe Illustrator 20.1.0, SVG Export Plug-In . SVG Version: 6.00 Build 0)  -->
<svg version="1.1" id="List" xmlns="http://www.w3.org/2000/svg" xmlns:xlink="http://www.w3.org/1999/xlink" x="0px" y="0px"
	 viewBox="0 0 20 20" style="enable-background:new 0 0 20 20;" xml:space="preserve">
<style type="text/css">
	.st0{fill:#878787;}
</style>
<path class="st0" d="M14.4,9H8.6C8,9,8,9.4,8,10s0,1,0.6,1h5.8c0.6,0,0.6-0.4,0.6-1S15,9,14.4,9z M16.4,14H8.6C8,14,8,14.4,8,15
	s0,1,0.6,1h7.8c0.6,0,0.6-0.4,0.6-1S17,14,16.4,14z M8.6,6h7.8C17,6,17,5.6,17,5s0-1-0.6-1H8.6C8,4,8,4.4,8,5S8,6,8.6,6z M5.4,9H3.6
	C3,9,3,9.4,3,10s0,1,0.6,1h1.8C6,11,6,10.6,6,10S6,9,5.4,9z M5.4,14H3.6C3,14,3,14.4,3,15s0,1,0.6,1h1.8C6,16,6,15.6,6,15
	S6,14,5.4,14z M5.4,4H3.6C3,4,3,4.4,3,5s0,1,0.6,1h1.8C6,6,6,5.6,6,5S6,4,5.4,4z"/>
</svg>
