<?xml version="1.0" encoding="utf-8"?>
<!-- Generator: Adobe Illustrator 20.1.0, SVG Export Plug-In . SVG Version: 6.00 Build 0)  -->
<svg version="1.1" id="Layer_1" xmlns="http://www.w3.org/2000/svg" xmlns:xlink="http://www.w3.org/1999/xlink" x="0px" y="0px"
	 viewBox="0 0 512 512" style="enable-background:new 0 0 512 512;" xml:space="preserve">
<style type="text/css">
	.st0{fill:#333333;}
</style>
<g id="Calendar-Checked">
	<path class="st0" d="M382.4,409.1c-2.6-3.5-7.7-4.3-11.2-1.6c-3.5,2.6-4.3,7.7-1.6,11.2l25.6,34.1c1.5,2,3.9,3.2,6.4,3.2
		c0.1,0,0.3,0,0.4,0c2.7-0.1,5.1-1.6,6.4-3.9l38.4-64c2.3-3.8,1-8.7-2.7-11c-3.8-2.3-8.7-1-11,2.7l-32.3,53.8L382.4,409.1z"/>
	<path class="st0" d="M480,48H360V8c0-4.4-3.6-8-8-8c-4.4,0-8,3.6-8,8v40H176V8c0-4.4-3.6-8-8-8c-4.4,0-8,3.6-8,8v40H32
		C14.3,48,0,62.4,0,80v400c0,17.7,14.3,32,32,32h448c17.7,0,32-14.3,32-32V80C512,62.4,497.7,48,480,48z M32,64h128v24
		c0,4.4,3.6,8,8,8c4.4,0,8-3.6,8-8V64h168v24c0,4.4,3.6,8,8,8c4.4,0,8-3.6,8-8V64h120c8.8,0,16,7.2,16,16v56H16l0,0V80
		C16,71.2,23.2,64,32,64z M496,480c0,8.8-7.2,16-16,16H32c-8.8,0-16-7.2-16-16V152l0,0h480V480z"/>
	<path class="st0" d="M144,192H80v64h64V192z M128,240H96v-32h32V240z"/>
	<path class="st0" d="M288,192h-64v64h64V192z M272,240h-32v-32h32V240z"/>
	<path class="st0" d="M432,192h-64v64h64V192z M416,240h-32v-32h32V240z"/>
	<path class="st0" d="M144,288H80v64h64V288z M128,336H96v-32h32V336z"/>
	<path class="st0" d="M288,288h-64v64h64V288z M272,336h-32v-32h32V336z"/>
	<path class="st0" d="M144,384H80v64h64V384z M128,432H96v-32h32V432z"/>
	<path class="st0" d="M288,384h-64v64h64V384z M272,432h-32v-32h32V432z"/>
	<path class="st0" d="M432,288h-64v64h64V288z M416,336h-32v-32h32V336z"/>
</g>
</svg>
