<?xml version="1.0" encoding="utf-8"?>
<!-- Generator: Adobe Illustrator 20.1.0, SVG Export Plug-In . SVG Version: 6.00 Build 0)  -->
<svg version="1.1" id="Capa_1" xmlns="http://www.w3.org/2000/svg" xmlns:xlink="http://www.w3.org/1999/xlink" x="0px" y="0px"
	 viewBox="0 0 512 512" style="enable-background:new 0 0 512 512;" xml:space="preserve">
<style type="text/css">
	.st0{fill:#333333;}
</style>
<g>
	<path class="st0" d="M489.2,149.3c5.4,0,9.8-4.4,9.8-9.8V85.3c0-5.4-4.4-9.8-9.8-9.8h-13.1v-26c0-27.1-22.1-49.2-49.2-49.2H151.6V0
		H62.2C35,0,13,22.1,13,49.2v413.3c0,27.1,22.1,49.2,49.2,49.2h37.9v0c0.9,0.1,1.9,0.2,2.9,0.2h324c27.1,0,49.2-22.1,49.2-49.2
		V330.1h13.1c5.4,0,9.8-4.4,9.8-9.8v-54.1c0-5.4-4.4-9.8-9.8-9.8h-13.1v-18.5h13.1c5.4,0,9.8-4.4,9.8-9.8v-54.1
		c0-5.4-4.4-9.8-9.8-9.8h-13.1v-14.8L489.2,149.3L489.2,149.3L489.2,149.3z M62.2,492.1c-16.3,0-29.5-13.2-29.5-29.5V49.2
		c0-16.3,13.2-29.5,29.5-29.5h69.7v472.4h-31.6l0,0H62.2z M456.4,462.8c0,16.3-13.2,29.5-29.5,29.5l-275.3,0V19.9h275.3
		c16.3,0,29.5,13.2,29.5,29.5L456.4,462.8L456.4,462.8z M322.9,249c18.5-8,31.5-26.5,31.5-47.9c0-28.8-23.4-52.2-52.2-52.2
		c-28.8,0-52.2,23.4-52.2,52.2c0,21.4,12.9,39.7,31.3,47.8c-34.3,8.5-60.3,37.6-63.7,74.3l-0.4,4.8l3.5,3.3c22.2,20.6,51,32,81.2,32
		c30.1,0,59-11.4,81.2-32l3.6-3.3l-0.4-4.8C382.8,286.6,357,257.6,322.9,249z M269.7,201.1c0-18,14.6-32.6,32.6-32.6
		c18,0,32.5,14.6,32.5,32.6c0,17.9-14.6,32.5-32.5,32.5C284.3,233.7,269.7,219.1,269.7,201.1z M301.9,343.7
		c-23.5,0-46.1-8.3-64.1-23.5C243,289,269.8,266,301.9,266s58.9,23,64.1,54.2C348,335.4,325.4,343.7,301.9,343.7z"/>
</g>
</svg>
