<?xml version="1.0" encoding="utf-8"?>
<!-- Generator: Adobe Illustrator 20.1.0, SVG Export Plug-In . SVG Version: 6.00 Build 0)  -->
<svg version="1.1" id="Capa_1" xmlns="http://www.w3.org/2000/svg" xmlns:xlink="http://www.w3.org/1999/xlink" x="0px" y="0px"
	 viewBox="0 0 512 512" style="enable-background:new 0 0 512 512;" xml:space="preserve">
<style type="text/css">
	.st0{fill:#333333;}
</style>
<g>
	<path class="st0" d="M509.4,200c-2.1-2.4-5.1-3.8-8.2-3.8h-22.6V74.5c0-8.3-6.8-15.1-15.1-15.1H201.4L180.2,24
		c-2.7-4.5-7.7-7.3-13-7.3H49.3c-8.3,0-15.1,6.8-15.1,15.1v164.4H10.9c-3.2,0-6.2,1.4-8.2,3.8c-2.1,2.4-3,5.6-2.5,8.7l42,277.4
		c0.8,5.3,5.3,9.2,10.7,9.2h406.2c5.4,0,9.9-3.9,10.7-9.2l42-277.4C512.4,205.6,511.5,202.4,509.4,200z M51.3,33.8h114.8l21.2,35.4
		c2.7,4.5,7.7,7.3,13,7.3h261.2v119.6h-8.5V162h-8.5v-25.6h-8.5v-25.6H76.9v25.6h-8.5V162h-8.5v34.2h-8.5V33.8z M76.9,179.1h358.9
		v17.1H76.9V179.1z M85.5,153.5h341.8v8.5H85.5V153.5z M418.8,136.4H94v-8.5h324.7V136.4z M453.8,478.2H58.2L18.1,213.3h16.1h25.6
		h393.1h25.6h15.3L453.8,478.2z"/>
	<path class="st0" d="M230.4,435.5h179.5V315.8H230.4L230.4,435.5L230.4,435.5z M247.5,332.9h145.3v85.5H247.5L247.5,332.9
		L247.5,332.9z"/>
	<path class="st0" d="M273.1,367.1h34.2c4.7,0,8.5-3.8,8.5-8.5s-3.8-8.5-8.5-8.5h-34.2c-4.7,0-8.5,3.8-8.5,8.5
		S268.4,367.1,273.1,367.1z"/>
	<path class="st0" d="M341.5,367.1h8.5c4.7,0,8.5-3.8,8.5-8.5s-3.8-8.5-8.5-8.5h-8.5c-4.7,0-8.5,3.8-8.5,8.5
		S336.7,367.1,341.5,367.1z"/>
	<path class="st0" d="M367.1,384.2h-94c-4.7,0-8.5,3.8-8.5,8.5c0,4.7,3.8,8.5,8.5,8.5h94c4.7,0,8.5-3.8,8.5-8.5
		C375.6,388,371.8,384.2,367.1,384.2z"/>
</g>
</svg>
