<?xml version="1.0" encoding="utf-8"?>
<!-- Generator: Adobe Illustrator 20.1.0, SVG Export Plug-In . SVG Version: 6.00 Build 0)  -->
<svg version="1.1" id="Capa_1" xmlns="http://www.w3.org/2000/svg" xmlns:xlink="http://www.w3.org/1999/xlink" x="0px" y="0px"
	 viewBox="0 0 512 512" style="enable-background:new 0 0 512 512;" xml:space="preserve">
<style type="text/css">
	.st0{fill:#333333;}
</style>
<g>
	<path class="st0" d="M301,374.4h-7l0.1-157.6c-0.2-10.8-9-19.4-19.8-19.4H211c-10.9,0-19.8,8.9-19.8,19.8
		c0,10.9,8.9,19.8,19.8,19.8h10.9v137.4h-7c-10.9,0-19.8,8.9-19.8,19.8c0,10.9,8.9,19.8,19.8,19.8H301c10.9,0,19.8-8.9,19.8-19.8
		C320.8,383.2,311.9,374.4,301,374.4z"/>
	<circle class="st0" cx="258" cy="139.6" r="41.6"/>
	<path class="st0" d="M405.7,0H106.3C47.7,0,0,47.7,0,106.3v299.4C0,464.3,47.7,512,106.3,512h299.4c58.6,0,106.3-47.7,106.3-106.3
		V106.3C512,47.7,464.3,0,405.7,0z M492.6,405.7c0,47.9-39,86.9-86.8,86.9H106.3c-47.9,0-86.8-39-86.8-86.9V106.3
		c0-47.9,39-86.8,86.8-86.8h299.4c47.9,0,86.8,39,86.8,86.8V405.7z"/>
</g>
</svg>
