<?xml version="1.0" encoding="utf-8"?>
<!-- Generator: Adobe Illustrator 20.1.0, SVG Export Plug-In . SVG Version: 6.00 Build 0)  -->
<svg version="1.1" id="Capa_1" xmlns="http://www.w3.org/2000/svg" xmlns:xlink="http://www.w3.org/1999/xlink" x="0px" y="0px"
	 viewBox="0 0 512 512" style="enable-background:new 0 0 512 512;" xml:space="preserve">
<style type="text/css">
	.st0{fill:#333333;}
</style>
<g>
	<path class="st0" d="M504,298L478,271.9c-10.6-10.6-28-10.6-38.6,0L298.6,412.6l-19.4,71.1l-4.7,4.7c-3.5,3.5-3.6,9.3-0.1,12.8
		l0,0.2l0.2,0c1.8,1.7,4.1,2.6,6.4,2.6c2.3,0,4.7-0.9,6.5-2.7l4.8-4.8l71.1-19.4L504,336.6C514.7,325.9,514.7,308.6,504,298z
		 M319.8,417.4l93.7-93.6l38.8,38.8l-93.7,93.7L319.8,417.4z M311.5,435l29.4,29.4l-40.5,11L311.5,435z M491.1,323.6l-26,26
		l-38.8-38.8l26-26c3.5-3.5,9.2-3.5,12.7,0l26.1,26.1C494.6,314.4,494.6,320.1,491.1,323.6z"/>
	<path class="st0" d="M246.9,117.6c-5,0-9.1,4.1-9.1,9.1s4.1,9.1,9.1,9.1h164.6c5,0,9.1-4.1,9.1-9.1s-4.1-9.1-9.1-9.1H246.9z"/>
	<path class="st0" d="M420.6,254.8c0-5.1-4.1-9.1-9.1-9.1H246.9c-5,0-9.1,4.1-9.1,9.1s4.1,9.1,9.1,9.1h164.6
		C416.5,263.9,420.6,259.8,420.6,254.8z"/>
	<path class="st0" d="M188.2,74.1c-3.8-3.3-9.6-2.9-12.9,1l-57.1,66.6l-34.9-26.2c-4-3-9.8-2.2-12.8,1.8c-3,4-2.2,9.8,1.8,12.8
		l41.8,31.4c1.6,1.2,3.6,1.8,5.5,1.8c2.6,0,5.1-1.1,6.9-3.2L189.2,87C192.4,83.2,192,77.4,188.2,74.1z"/>
	<path class="st0" d="M188.2,202.1c-3.8-3.3-9.6-2.9-12.9,1l-57.1,66.6l-34.9-26.2c-4-3-9.8-2.2-12.8,1.8s-2.2,9.8,1.8,12.8
		l41.8,31.4c1.6,1.2,3.6,1.8,5.5,1.8c2.6,0,5.1-1.1,6.9-3.2l62.7-73.1C192.4,211.2,192,205.4,188.2,202.1z"/>
	<path class="st0" d="M175.3,340.2l-57.1,66.6l-34.9-26.2c-4-3-9.8-2.2-12.8,1.8c-3,4-2.2,9.8,1.8,12.8l41.8,31.4
		c1.6,1.2,3.6,1.8,5.5,1.8c2.6,0,5.1-1.1,6.9-3.2l62.7-73.1c3.3-3.8,2.8-9.6-1-12.9C184.3,336,178.6,336.4,175.3,340.2z"/>
	<path class="st0" d="M228.6,483.3H111.3c-51.3,0-93-41.7-93-93V119.2c0-51.3,41.7-93,93-93h271.1c51.3,0,93,41.7,93,93v108.1
		c0,5.1,4.1,9.1,9.1,9.1c5,0,9.1-4.1,9.1-9.1V119.2c0-61.4-49.9-111.3-111.3-111.3H111.3C49.9,7.9,0,57.8,0,119.2v271.1
		c0,61.4,49.9,111.3,111.3,111.3h117.3c5,0,9.1-4.1,9.1-9.1C237.7,487.4,233.6,483.3,228.6,483.3z"/>
</g>
</svg>
