<?xml version="1.0" encoding="utf-8"?>
<!-- Generator: Adobe Illustrator 20.1.0, SVG Export Plug-In . SVG Version: 6.00 Build 0)  -->
<svg version="1.1" id="Capa_1" xmlns="http://www.w3.org/2000/svg" xmlns:xlink="http://www.w3.org/1999/xlink" x="0px" y="0px"
	 viewBox="0 0 512 512" style="enable-background:new 0 0 512 512;" xml:space="preserve">
<style type="text/css">
	.st0{fill:#333333;}
</style>
<g>
	<path class="st0" d="M470.7,438H41.3C18.5,438,0,419.5,0,396.7V115.3C0,92.5,18.5,74,41.3,74h429.5c22.8,0,41.3,18.5,41.3,41.3
		v281.4C512,419.5,493.5,438,470.7,438z M41.3,90.5c-13.7,0-24.8,11.1-24.8,24.8v281.4c0,13.7,11.1,24.8,24.8,24.8h429.5
		c13.7,0,24.8-11.1,24.8-24.8V115.3c0-13.7-11.1-24.8-24.8-24.8H41.3z"/>
	<path class="st0" d="M256,297.5c-11,0-22-3.6-30.3-10.9l-211-183.9c-3.4-3-3.8-8.2-0.8-11.6c3-3.5,8.2-3.8,11.7-0.8l211,183.9
		c10.6,9.2,28.4,9.2,38.9,0L486.4,90.2c3.4-3,8.6-2.7,11.7,0.8c3,3.4,2.6,8.6-0.8,11.6L286.3,286.5C278,293.8,267,297.5,256,297.5z"
		/>
</g>
</svg>
