<?xml version="1.0" standalone="no"?>
<!DOCTYPE svg PUBLIC "-//W3C//DTD SVG 20010904//EN"
 "http://www.w3.org/TR/2001/REC-SVG-20010904/DTD/svg10.dtd">
<svg version="1.0" xmlns="http://www.w3.org/2000/svg"
 width="260.000000pt" height="260.000000pt" viewBox="0 0 260.000000 260.000000"
 preserveAspectRatio="xMidYMid meet">
<metadata>
Created by potrace 1.11, written by Peter Selinger 2001-2013
</metadata>
<g transform="translate(0.000000,260.000000) scale(0.100000,-0.100000)"
fill="#000000" stroke="none">
<path d="M78 2579 c-23 -12 -46 -35 -58 -59 -20 -39 -20 -57 -20 -1222 l0
-1183 23 -39 c12 -21 38 -47 57 -57 33 -18 85 -19 1220 -19 1135 0 1187 1
1220 19 19 10 45 36 57 57 l23 39 0 1183 c0 1166 0 1183 -20 1222 -13 26 -34
47 -60 60 -39 20 -56 20 -1222 20 -1158 -1 -1184 -1 -1220 -21z m1674 -189
c50 -113 66 -342 34 -475 -36 -150 -127 -296 -273 -437 l-79 -77 48 -36 c74
-57 201 -197 253 -279 l48 -75 54 -7 c30 -3 72 -4 94 -1 59 8 37 -10 -29 -23
-100 -20 -94 -12 -62 -90 48 -116 71 -224 75 -355 l4 -120 -13 90 c-23 151
-53 250 -118 383 l-31 62 -81 0 c-86 0 -218 25 -303 58 -74 28 -175 103 -233
173 -43 52 -90 126 -90 143 0 3 28 -22 63 -57 74 -73 179 -135 309 -182 99
-35 264 -72 275 -61 12 12 -95 122 -198 203 -125 98 -203 141 -328 183 -129
43 -243 51 -326 21 -53 -19 -269 -81 -283 -81 -12 0 89 73 138 99 30 16 66 42
80 56 98 105 312 88 556 -44 l70 -38 59 91 c122 189 198 366 236 548 17 85 20
126 16 233 -3 72 -8 141 -12 155 -6 25 -6 25 10 5 9 -11 26 -40 37 -65z m253
-206 c51 -242 -38 -483 -237 -642 -70 -55 -226 -152 -246 -152 -7 0 29 42 80
94 221 223 352 472 365 694 4 52 10 89 15 84 4 -4 15 -39 23 -78z m-210 -1449
c54 -164 75 -273 74 -395 -1 -58 -4 -116 -8 -130 -7 -24 -8 -24 -35 19 -37 57
-70 148 -92 247 -18 85 -25 358 -9 404 l8 25 13 -30 c7 -16 30 -79 49 -140z"/>
</g>
</svg>
