<?xml version="1.0" encoding="utf-8"?>
<!-- Generator: Adobe Illustrator 20.1.0, SVG Export Plug-In . SVG Version: 6.00 Build 0)  -->
<svg version="1.1" id="Capa_1" xmlns="http://www.w3.org/2000/svg" xmlns:xlink="http://www.w3.org/1999/xlink" x="0px" y="0px"
	 viewBox="0 0 512 512" style="enable-background:new 0 0 512 512;" xml:space="preserve">
<style type="text/css">
	.st0{fill:#333333;}
</style>
<g>
	<path class="st0" d="M504.3,223l-29.7-5.7c-17.5-3.4-31.8-15.2-38.3-31.8c-6.5-16.5-4.1-35,6.4-49.3l18.6-25.4
		c2.8-3.8,2.4-9-0.9-12.3l-40.2-40.2c-3.2-3.2-8.3-3.7-12-1.1l-25,16.9c-14.7,10-33.2,11.7-49.5,4.6c-16.3-7.1-27.6-21.9-30.4-39.4
		L298.6,8c-0.7-4.6-4.7-8-9.4-8h-56.9c-4.5,0-8.5,3.2-9.3,7.7L215.6,46c-3.3,17.1-14.8,31.3-30.9,37.9c-16.1,6.7-34.3,4.8-48.6-4.9
		l-32.3-21.9c-3.8-2.5-8.8-2.1-12,1.1L51.5,98.4c-3.3,3.3-3.7,8.5-0.9,12.3l18.6,25.4c10.5,14.3,12.9,32.8,6.4,49.3
		c-6.5,16.5-20.8,28.4-38.3,31.8L7.7,223c-4.5,0.8-7.7,4.8-7.7,9.3v56.9c0,4.7,3.4,8.7,8,9.4l31.1,4.8c17.6,2.7,32.3,14,39.4,30.3
		c7.1,16.3,5.4,34.8-4.6,49.6l-16.9,25c-2.6,3.8-2.1,8.8,1.1,12l40.2,40.2c3.3,3.3,8.5,3.7,12.3,0.9l25.4-18.6
		c14.3-10.5,32.8-12.9,49.3-6.4c16.6,6.5,28.4,20.8,31.8,38.3l5.7,29.7c0.9,4.5,4.8,7.7,9.3,7.7h56.9c4.7,0,8.7-3.4,9.4-8l3.4-21.9
		c2.8-18,14.4-32.9,31.2-39.8c16.8-6.9,35.6-4.7,50.2,6.1l17.9,13.1c3.8,2.8,9,2.4,12.3-0.9l40.2-40.2c3.2-3.2,3.7-8.3,1.1-12
		l-16.9-25c-10-14.7-11.7-33.2-4.6-49.5c7.1-16.3,21.8-27.6,39.4-30.4l31.1-4.8c4.6-0.7,8-4.7,8-9.4v-56.9
		C512,227.8,508.8,223.8,504.3,223z M493,281.1l-23.1,3.6c-24,3.7-44.2,19.2-53.9,41.5c-9.7,22.3-7.4,47.6,6.3,67.8l12.5,18.5
		l-28.9,28.9l-11.3-8.3c-20.1-14.7-45.7-17.8-68.7-8.3c-23,9.5-38.9,29.9-42.7,54.4l-2.1,13.8h-40.9l-4.2-22
		c-4.6-23.9-20.9-43.5-43.5-52.3c-22.6-8.9-47.9-5.6-67.5,8.8l-18.8,13.8l-28.9-28.9l12.6-18.5c13.6-20.1,16-45.5,6.2-67.8
		c-9.7-22.3-29.9-37.8-53.9-41.5L19,281.1v-40.9l22-4.2c23.9-4.6,43.4-20.8,52.3-43.5c8.9-22.6,5.6-47.9-8.8-67.5l-13.8-18.8
		l28.9-28.9l25.8,17.5c19.7,13.3,44.6,15.9,66.5,6.8c22-9.1,37.8-28.5,42.3-51.8l5.9-30.6h40.9l3.6,23.1c3.7,24,19.2,44.2,41.5,53.9
		s47.6,7.4,67.8-6.2l18.5-12.5l28.9,28.9l-13.8,18.8c-14.4,19.6-17.7,44.8-8.8,67.5c8.9,22.6,28.4,38.9,52.3,43.5l21.9,4.2V281.1z"
		/>
	<path class="st0" d="M260.7,161.2c-54.9,0-99.6,44.7-99.6,99.6s44.7,99.6,99.6,99.6s99.6-44.7,99.6-99.6S315.6,161.2,260.7,161.2z
		 M260.7,341.3c-44.4,0-80.6-36.2-80.6-80.6s36.2-80.6,80.6-80.6s80.6,36.2,80.6,80.6S305.2,341.3,260.7,341.3z"/>
	<path class="st0" d="M260.7,208.6c-28.8,0-52.1,23.4-52.1,52.1s23.4,52.1,52.1,52.1c28.8,0,52.1-23.4,52.1-52.1
		S289.5,208.6,260.7,208.6z M260.7,293.9c-18.3,0-33.2-14.9-33.2-33.2s14.9-33.2,33.2-33.2s33.2,14.9,33.2,33.2
		S279,293.9,260.7,293.9z"/>
</g>
</svg>
